<svg width="20" height="32" viewBox="0 0 20 32" fill="none" xmlns="http://www.w3.org/2000/svg">
<path d="M19.3906 31.3906H18.1094V29C18.1094 27.6772 17.6724 26.3911 16.8698 25.4279C16.0644 24.4615 14.9458 23.8906 13.75 23.8906H6.25C5.05424 23.8906 3.93556 24.4615 3.13021 25.4279C2.32757 26.3911 1.89062 27.6772 1.89062 29V31.3906H0.609375V29C0.609375 27.1402 1.226 25.3741 2.29872 24.0868C3.36873 22.8028 4.7936 22.1094 6.25 22.1094H13.75C15.2064 22.1094 16.6313 22.8028 17.7013 24.0868C18.774 25.3741 19.3906 27.1402 19.3906 29V31.3906ZM10 17.8906C9.11224 17.8906 8.22953 17.681 7.40111 17.2692C6.57212 16.8572 5.81102 16.2493 5.16483 15.4738C4.51851 14.6983 4.00126 13.7718 3.64693 12.7453C3.29261 11.7188 3.10938 10.6158 3.10938 9.5C3.10938 8.38418 3.29261 7.28116 3.64693 6.25468C4.00126 5.22816 4.51851 4.30174 5.16483 3.52615C5.81102 2.75073 6.57212 2.14282 7.40111 1.73077C8.22953 1.31899 9.11224 1.10938 10 1.10938C11.7879 1.10938 13.5307 1.96083 14.8352 3.52615C16.1423 5.09472 16.8906 7.24238 16.8906 9.5C16.8906 11.7576 16.1423 13.9053 14.8352 15.4738C13.5307 17.0392 11.7879 17.8906 10 17.8906ZM10 16.1094C11.5273 16.1094 12.9639 15.3805 14.0037 14.1328C15.0407 12.8883 15.6094 11.2206 15.6094 9.5C15.6094 7.77937 15.0407 6.11173 14.0037 4.86725C12.9639 3.61952 11.5273 2.89062 10 2.89062C8.47272 2.89062 7.0361 3.61952 5.99633 4.86725C4.95926 6.11173 4.39062 7.77937 4.39062 9.5C4.39062 11.2206 4.95926 12.8883 5.99633 14.1328C7.0361 15.3805 8.47272 16.1094 10 16.1094Z" fill="white" stroke="white" stroke-width="1.21875"/>
</svg>
